<?xml version="1.0" encoding="UTF-8" standalone="no"?>
<!-- Created with Inkscape (http://www.inkscape.org/) -->

<svg
   xmlns:dc="http://purl.org/dc/elements/1.1/"
   xmlns:cc="http://creativecommons.org/ns#"
   xmlns:rdf="http://www.w3.org/1999/02/22-rdf-syntax-ns#"
   xmlns:svg="http://www.w3.org/2000/svg"
   xmlns="http://www.w3.org/2000/svg"
   xmlns:sodipodi="http://sodipodi.sourceforge.net/DTD/sodipodi-0.dtd"
   xmlns:inkscape="http://www.inkscape.org/namespaces/inkscape"
   width="147.47784mm"
   height="149.06776mm"
   viewBox="0 0 147.47784 149.06778"
   version="1.1"
   id="svg8"
   inkscape:version="0.92.3 (2405546, 2018-03-11)"
   sodipodi:docname="label_2.svg">
  <defs
     id="defs2" />
  <sodipodi:namedview
     id="base"
     pagecolor="#ffffff"
     bordercolor="#666666"
     borderopacity="1.0"
     inkscape:pageopacity="0.0"
     inkscape:pageshadow="2"
     inkscape:zoom="0.35"
     inkscape:cx="-179.54396"
     inkscape:cy="150.98936"
     inkscape:document-units="mm"
     inkscape:current-layer="layer1"
     showgrid="false"
     inkscape:window-width="1366"
     inkscape:window-height="711"
     inkscape:window-x="-4"
     inkscape:window-y="-4"
     inkscape:window-maximized="1"
     fit-margin-top="0"
     fit-margin-left="0"
     fit-margin-right="0"
     fit-margin-bottom="0"
     inkscape:pagecheckerboard="true" />
  <metadata
     id="metadata5">
    <rdf:RDF>
      <cc:Work
         rdf:about="">
        <dc:format>image/svg+xml</dc:format>
        <dc:type
           rdf:resource="http://purl.org/dc/dcmitype/StillImage" />
        <dc:title></dc:title>
      </cc:Work>
    </rdf:RDF>
  </metadata>
  <g
     inkscape:label="Layer 1"
     inkscape:groupmode="layer"
     id="layer1"
     transform="translate(-17.266243,-39.714928)">
    <path
       style="fill:#ffffff;fill-opacity:1;stroke:#000000;stroke-width:0.26458332;stroke-opacity:1"
       d="m 79.009184,179.9954 c -2.80963,-1.06368 -3.77161,-1.95459 -26.09372,-24.16567 -14.74339,-14.67006 -22.57706,-22.65136 -23.17795,-23.61474 -1.56864,-2.51496 -1.8304,-3.72405 -1.73334,-8.0062 0.14297,-6.30724 -2.98826,-2.60945 31.14005,-36.77453 l 29.27106,-29.3026 25.928986,0.003 c 27.83521,0.003 27.14278,-0.0282 29.44824,1.33201 0.50186,0.2961 1.60777,1.14312 2.45758,1.88227 1.22495,1.06542 1.79378,1.84493 2.74508,3.76176 l 1.19995,2.41786 v 26.059254 26.059236 l -29.43489,29.38875 c -34.369486,34.31561 -30.643866,31.16473 -36.959836,31.25823 -2.70599,0.0401 -4.13155,-0.0487 -4.79121,-0.29849 z m 6.97148,-7.98687 c 0.46572,-0.23271 13.31855,-12.88233 28.561856,-28.11026 l 27.7151,-27.68713 V 92.911744 69.61234 l -0.74682,-1.17628 c -0.49678,-0.78244 -1.22762,-1.44204 -2.18282,-1.97003 l -1.43598,-0.79375 -22.75417,-0.0723 -22.754166,-0.0723 -27.82225,27.853524 c -19.0021,19.023456 -27.99798,28.206656 -28.37656,28.967456 -0.65915,1.32463 -0.71819,3.13736 -0.14712,4.51696 0.28515,0.68885 6.8473,7.43503 21.89427,22.50828 11.8179,11.83854 21.95143,21.86955 22.51897,22.29115 0.90448,0.6719 1.25728,0.76654 2.85741,0.76654 1.14363,0 2.14181,-0.15805 2.67228,-0.42312 z M 115.7496,101.00458 c -1.89649,-0.34622 -4.30516,-1.767736 -5.8484,-3.451516 -2.53553,-2.76642 -3.63962,-7.002254 -2.73993,-10.511614 1.11658,-4.35536 3.66052,-7.12171 7.85855,-8.54563 1.42407,-0.48303 2.11063,-0.55789 4.16053,-0.45363 2.15945,0.10983 2.6929,0.24243 4.43094,1.10142 3.19466,1.57889 4.8956,3.60491 6.08859,7.25226 0.72509,2.21684 0.44006,6.016694 -0.62452,8.325664 -1.05153,2.28069 -3.04563,4.30744 -5.33857,5.425986 -1.46303,0.71369 -2.09506,0.8572 -4.23334,0.96122 -1.38244,0.0673 -3.07168,0.0204 -3.75385,-0.10416 z m 4.19305,-8.118026 c 1.16935,-0.5549 2.20664,-2.069704 2.20664,-3.222484 0,-1.02138 -1.12942,-2.77699 -2.06297,-3.20678 -1.77844,-0.81875 -3.93944,0.0489 -4.86462,1.95322 -0.56328,1.15941 -0.5649,1.19817 -0.0935,2.24367 0.5345,1.185294 1.16724,1.845174 2.21635,2.311394 0.98618,0.43825 1.54371,0.42129 2.59804,-0.079 z"
       id="path839"
       inkscape:connector-curvature="0" />
  </g>
</svg>
